<?xml version="1.0" encoding="utf-8"?>
<!-- Generator: Adobe Illustrator 24.0.1, SVG Export Plug-In . SVG Version: 6.00 Build 0)  -->
<svg version="1.1" id="Layer_1" xmlns="http://www.w3.org/2000/svg" xmlns:xlink="http://www.w3.org/1999/xlink" x="0px" y="0px"
	 viewBox="0 0 389 246.8" style="enable-background:new 0 0 389 246.8;" xml:space="preserve">
<style type="text/css">
	.st0{fill:#616261;}
	.st1{fill:#8CC640;}
	.st2{fill:#1BB9D7;}
	.st3{fill:#484748;}
</style>
<g>
	<g>
		<path class="st0" d="M121.6,220.6c-1.2-1.1-3-1.6-5.2-1.6h-5.8v20.9h2.7v-7.8h2.6c2.3,0,4.2-0.6,5.5-1.9c1.4-1.3,2.1-2.9,2.1-4.9
			C123.5,223.3,122.8,221.7,121.6,220.6z M113.3,221.4h2.7c3.2,0,4.7,1.3,4.7,4c0,1.3-0.4,2.4-1.3,3.1c-0.9,0.7-2.1,1.1-3.7,1.1
			h-2.4V221.4z"/>
		<path class="st0" d="M132.3,224.5c-2.3,0-4.2,0.7-5.6,2.1c-1.4,1.4-2.1,3.4-2.1,5.9c0,2.3,0.7,4.2,2,5.6c1.3,1.4,3.1,2.1,5.3,2.1
			c2.3,0,4.1-0.7,5.4-2.2c1.3-1.4,2-3.4,2-5.7c0-2.4-0.6-4.3-1.9-5.7C136.3,225.2,134.6,224.5,132.3,224.5z M135.6,236.5
			c-0.8,1-1.9,1.4-3.4,1.4c-1.5,0-2.6-0.5-3.5-1.5c-0.9-1-1.3-2.3-1.3-4c0-1.8,0.4-3.2,1.3-4.2c0.9-1,2-1.5,3.5-1.5
			c1.5,0,2.6,0.5,3.4,1.5c0.8,1,1.2,2.4,1.2,4.2C136.8,234.2,136.4,235.6,135.6,236.5z"/>
		<path class="st0" d="M156.2,236.1c-0.1,0.3-0.1,0.5-0.2,0.8c0-0.3-0.1-0.6-0.2-0.8l-3.1-11.1l0-0.1h-2.3L147,236
			c-0.1,0.3-0.1,0.5-0.2,0.8c0-0.3-0.1-0.5-0.1-0.8l-3.1-11.2h-2.7l4.5,15h2.5l3.3-10.7c0.1-0.3,0.1-0.5,0.2-0.7
			c0,0.3,0.1,0.5,0.2,0.7l3,10.6l0,0.1h2.6l4.5-15h-2.6L156.2,236.1z"/>
		<path class="st0" d="M170.2,224.5c-2,0-3.6,0.7-4.9,2.2c-1.3,1.5-2,3.4-2,5.7c0,2.4,0.6,4.4,1.8,5.7c1.2,1.4,2.9,2.1,5,2.1
			c2.1,0,3.9-0.5,5.2-1.4l0.1,0v-2.5l-0.2,0.2c-1.4,1.1-2.9,1.6-4.5,1.6c-1.4,0-2.6-0.4-3.4-1.3c-0.8-0.8-1.2-2-1.3-3.6h10.4v-1.4
			c0-2.2-0.5-4-1.6-5.3C173.7,225.2,172.2,224.5,170.2,224.5z M170.1,226.8c1.1,0,2,0.4,2.6,1.1c0.6,0.7,0.9,1.7,1,3H166
			c0.2-1.2,0.7-2.2,1.4-2.9C168.2,227.2,169.1,226.8,170.1,226.8z"/>
		<path class="st0" d="M186.1,224.6c-0.9,0-1.7,0.3-2.4,0.9c-0.6,0.5-1.1,1.2-1.4,2v-2.6h-2.6v15h2.6v-7.6c0-1.6,0.3-2.9,1-3.8
			c0.6-0.9,1.5-1.4,2.4-1.4c0.7,0,1.3,0.2,1.7,0.4l0.2,0.2v-2.8l-0.1,0C187.2,224.7,186.7,224.6,186.1,224.6z"/>
		<path class="st0" d="M195.9,224.5c-2,0-3.6,0.7-4.9,2.2c-1.3,1.5-2,3.4-2,5.7c0,2.4,0.6,4.4,1.8,5.7c1.2,1.4,2.9,2.1,5,2.1
			c2.1,0,3.9-0.5,5.2-1.4l0.1,0v-2.5l-0.2,0.2c-1.4,1.1-2.9,1.6-4.5,1.6c-1.4,0-2.6-0.4-3.4-1.3c-0.8-0.8-1.2-2-1.3-3.6H202v-1.4
			c0-2.2-0.5-4-1.6-5.3C199.4,225.2,197.8,224.5,195.9,224.5z M195.8,226.8c1.1,0,2,0.4,2.6,1.1c0.6,0.7,0.9,1.7,1,3h-7.7
			c0.2-1.2,0.7-2.2,1.4-2.9C193.8,227.2,194.7,226.8,195.8,226.8z"/>
		<path class="st0" d="M215.6,226.7c-0.9-1.4-2.4-2.2-4.4-2.2c-2.1,0-3.8,0.8-5,2.2c-1.2,1.5-1.9,3.5-1.9,5.9c0,2.3,0.6,4.1,1.7,5.5
			c1.1,1.3,2.7,2,4.5,2c2.2,0,3.9-0.9,5-2.6v2.3h2.6v-22.1h-2.6V226.7z M211.3,238c-1.3,0-2.3-0.5-3.1-1.4c-0.8-1-1.2-2.3-1.2-3.9
			c0-1.8,0.4-3.3,1.2-4.3c0.8-1,1.9-1.5,3.3-1.5c1.2,0,2.1,0.4,2.9,1.2c0.8,0.8,1.1,1.8,1.1,2.9v2.2c0,1.4-0.4,2.6-1.2,3.5
			C213.6,237.5,212.5,238,211.3,238z"/>
		<path class="st0" d="M238.4,224.5c-2.2,0-3.9,0.9-5,2.7v-9.5h-2.6v22.1h2.6V238c1,1.5,2.5,2.3,4.4,2.3c2.1,0,3.8-0.8,5-2.3
			c1.2-1.5,1.8-3.5,1.8-6c0-2.2-0.5-4-1.6-5.4C241.9,225.2,240.4,224.5,238.4,224.5z M237.9,226.8c1.2,0,2.3,0.5,3,1.4
			c0.7,0.9,1.1,2.2,1.1,3.8c0,1.9-0.4,3.4-1.2,4.5c-0.8,1.1-1.9,1.6-3.3,1.6c-1.2,0-2.2-0.4-2.9-1.2c-0.8-0.8-1.2-1.8-1.2-3v-2.1
			c0-1.4,0.4-2.6,1.2-3.5C235.4,227.2,236.5,226.8,237.9,226.8z"/>
		<path class="st0" d="M253.2,236.3c-0.1,0.3-0.2,0.6-0.2,0.8c-0.1-0.4-0.2-0.7-0.2-0.8l-4-11.3l0-0.1h-2.9l5.8,14.8l-1.2,2.7
			c-0.8,1.9-2,2.4-3.9,1.8l-0.2-0.1v2.4l0.1,0c0.4,0.1,1,0.2,1.6,0.2c2.2,0,4-1.6,5.2-4.7l6.8-17.3h-2.7L253.2,236.3z"/>
		<path class="st0" d="M286.4,219h-2.9l-5.9,16.4c-0.2,0.5-0.3,0.9-0.4,1.3c-0.1-0.5-0.2-0.9-0.3-1.3l-5.7-16.5h-3l7.5,20.8l0,0.1
			h2.8l7.7-20.7L286.4,219z"/>
		<path class="st0" d="M292.1,224.5c-1.9,0-3.6,0.5-5.1,1.4l-0.1,0v2.8l0.2-0.2c1.4-1.2,3-1.8,4.7-1.8c1.9,0,2.9,1.2,2.9,3.5
			l-4.3,0.6c-3.3,0.5-5,2.1-5,4.9c0,1.3,0.4,2.4,1.3,3.2c0.8,0.8,2,1.2,3.5,1.2c1.9,0,3.4-0.8,4.5-2.4v2.1h2.6v-9.7
			C297.4,226.4,295.6,224.5,292.1,224.5z M290.9,238c-0.8,0-1.5-0.2-2-0.7c-0.5-0.4-0.7-1-0.7-1.7c0-0.9,0.3-1.6,0.8-2
			c0.5-0.4,1.4-0.6,2.4-0.8l3.4-0.5v1.3c0,1.2-0.4,2.2-1.1,3C293,237.6,292,238,290.9,238z"/>
		<path class="st0" d="M309.3,224.5c-2.2,0-3.9,0.9-5,2.7v-2.4h-2.6v21.8h2.6v-8.7c1,1.5,2.5,2.3,4.4,2.3c2.1,0,3.8-0.8,5-2.3
			c1.2-1.5,1.8-3.5,1.8-6c0-2.2-0.5-4-1.6-5.4C312.7,225.2,311.2,224.5,309.3,224.5z M308.7,226.8c1.3,0,2.3,0.5,3,1.4
			c0.7,0.9,1.1,2.2,1.1,3.8c0,1.9-0.4,3.4-1.2,4.5c-0.8,1.1-1.9,1.6-3.3,1.6c-1.2,0-2.2-0.4-2.9-1.2c-0.8-0.8-1.2-1.8-1.2-3v-2.1
			c0-1.4,0.4-2.6,1.2-3.5C306.3,227.2,307.3,226.8,308.7,226.8z"/>
		<path class="st0" d="M325.6,224.5c-2.3,0-4.2,0.7-5.6,2.1c-1.4,1.4-2.1,3.4-2.1,5.9c0,2.3,0.7,4.2,2,5.6c1.3,1.4,3.1,2.1,5.3,2.1
			c2.3,0,4.1-0.7,5.4-2.2c1.3-1.4,2-3.4,2-5.7c0-2.4-0.6-4.3-1.9-5.7C329.6,225.2,327.8,224.5,325.6,224.5z M328.8,236.5
			c-0.8,1-1.9,1.4-3.4,1.4c-1.5,0-2.6-0.5-3.5-1.5c-0.9-1-1.3-2.3-1.3-4c0-1.8,0.4-3.2,1.3-4.2c0.9-1,2-1.5,3.5-1.5
			c1.5,0,2.6,0.5,3.4,1.5c0.8,1,1.2,2.4,1.2,4.2C330,234.2,329.6,235.6,328.8,236.5z"/>
		<path class="st0" d="M342.6,224.6c-0.9,0-1.7,0.3-2.4,0.9c-0.6,0.5-1.1,1.2-1.4,2v-2.6h-2.6v15h2.6v-7.6c0-1.6,0.3-2.9,1-3.8
			c0.7-0.9,1.5-1.4,2.4-1.4c0.7,0,1.3,0.2,1.7,0.4l0.2,0.2v-2.8l-0.1,0C343.8,224.7,343.3,224.6,342.6,224.6z"/>
		<path class="st0" d="M353.7,235.4c-0.2,0.5-0.3,0.9-0.4,1.3c-0.1-0.5-0.2-0.9-0.3-1.3l-5.7-16.5h-3l7.5,20.8l0,0.1h2.8l7.7-20.7
			l0.1-0.2h-2.9L353.7,235.4z"/>
		<path class="st0" d="M383.2,219l-6.5,14.4c-0.2,0.5-0.5,1.3-0.9,2.3c-0.2-0.5-0.5-1.3-0.9-2.3l-6.3-14.4l0-0.1h-3.4v20.9h2.6
			v-13.9c0-1.2,0-2.2,0-3c0.1,0.5,0.2,0.8,0.4,1.1l7.1,15.8h1.3l7.1-15.9c0.1-0.2,0.2-0.6,0.4-1c-0.1,1.1-0.1,2.1-0.1,3v14h2.7V219
			H383.2z"/>
	</g>
	<g>
		<path class="st1" d="M245.2,207.4c0.7-1,14.6-16.6,30.8-34.7c16.2-18,29.5-33.1,29.5-33.5c0-0.6-26-30.3-51.8-59.2l-7.9-8.8h8.9
			l8.8,0.1l29.5,33.2c16.2,18.3,29.5,33.9,29.5,34.7s-13.3,16.9-29.5,35.7l-29.5,34.2h-9.8C244.4,209.2,244,209.1,245.2,207.4z"/>
		<path class="st1" d="M340.9,182.5c-6.8-7.6-13.4-15-14.7-16.5l-2.3-2.8l4.2-5c2.3-2.7,4.5-5,4.9-5c0.7,0,38,41.6,38,42.5
			c0,0.3-4,0.5-8.8,0.5h-8.9L340.9,182.5z"/>
		<path class="st2" d="M196,191.6c-8.8-2.3-15.7-6.2-22.6-12.6c-3.5-3.3-6.4-6.4-6.4-6.9s3.4-0.9,7.5-0.9c6.4,0,8.1,0.4,11.4,2.5
			c9.4,6.2,12.5,6.8,39,7.3l24.3,0.4l-5.8,5.9l-5.8,5.9l-18.1-0.1C207.1,193.1,199.8,192.6,196,191.6z"/>
		<path class="st2" d="M367.7,175.6l-3.9-4.3l3.6-4.4c13.3-16.2,12.5-39-1.8-54.2l-3.5-3.7l4.2-4.5l4.2-4.5l5.1,5.5
			c9.3,10.3,13.4,21.3,13.4,36.2c0,13.6-5.4,26.9-14.2,35.1l-3.3,3.1L367.7,175.6z"/>
		<path class="st3" d="M196,162.7v-3.5h13.8c13.8,0,16.2-0.6,16.2-3.7c0-1-2.3-1.3-9.2-1.3c-11.2,0-16-1.2-18.8-4.7
			c-1.7-2.2-2-4-2-13.2c0-12.3,1-15.1,6-16.8c4.5-1.5,22.5-1.5,27,0c5.4,1.9,6,4.1,6,22.7c0,23.5-0.5,24-24.5,24H196V162.7z
			 M226,137.4c0-6.3-0.4-10.2-1.2-11c-1.3-1.3-15.3-1.7-18.2-0.6c-1.3,0.5-1.6,2.4-1.6,10c0,11.3,0,11.3,12.3,11.4h8.7V137.4z"/>
		<path class="st3" d="M27.8,153.5c-1-0.2-5.1-7-10-16.5l-8.3-16l-0.3,16.1L9,153.2H4.5H0v-20.8c0-23.7,0.2-24.2,7.7-24.2
			c5.4,0,6.7,1.7,15.3,19.5l7.1,15l8.5-16.7c7.7-15.1,8.8-16.8,11.8-17.8c3.5-1.1,6-0.6,8.8,1.8c1.6,1.3,1.8,3.7,1.8,22.4v20.8h-4.5
			H52l-0.1-16.7v-16.8L44,135.4c-7.2,14.3-10.6,19-13.5,18.7C30,154,28.7,153.8,27.8,153.5z"/>
		<path class="st3" d="M72.3,151.8c-4.8-2.2-6.6-5.7-6.1-11.7c0.9-8.7,5-10.8,21.1-10.9c7.9,0,8.8-0.2,8.5-1.7
			c-0.3-1.6-1.9-1.8-14.6-2.1L67,125.1v-3.4v-3.5h13.3c23.9,0.1,24.9,0.8,24.5,18.3c-0.3,11.8-0.3,12-3.1,14.1
			c-2.5,1.8-4.4,2.1-14.5,2.4C78.8,153.1,74.6,152.8,72.3,151.8z M96,144.3c0.5-1.1,1-3.3,1-5v-3.1h-9.8c-10.6,0-12.2,0.7-12.2,5
			s1.7,5,11.2,5C93.8,146.2,95.1,146,96,144.3z"/>
		<path class="st3" d="M108.7,152.5c-1.1-1-0.8-22.4,0.4-26.6c1.7-6.1,4.4-7.2,18.4-7.2c18.5,0,19.7,1.3,19.3,21.4l-0.3,12.6h-4h-4
			l-0.3-12.3l-0.3-12.3l-2.7-1c-3.5-1.4-14.5-0.7-16.6,1c-1.3,1.1-1.6,3.5-1.6,13.2v11.9h-3.8C111.1,153.2,109,152.9,108.7,152.5z"
			/>
		<path class="st3" d="M158.3,152.1c-4.6-1.4-6.3-4.3-6.3-11.1c0-9.4,4.2-11.8,20.8-11.8c5,0,9.2-0.4,9.2-0.8c0-2.6-3-3.2-16.3-3.2
			h-13.8l0.3-3.2l0.3-3.3l11-0.3c15.9-0.5,21.2,0.4,24.7,3.8c2.7,2.8,2.8,3.1,2.8,13.4s-0.1,10.7-2.9,13.8l-2.9,3.3l-11.9,0.2
			C166.8,153,160.1,152.7,158.3,152.1z M180.4,145.6c1.1-0.4,1.6-1.9,1.6-5v-4.5l-10.2,0.3l-10.3,0.3l-0.3,3.9
			c-0.2,2.4,0.2,4.2,1,4.7C163.7,146.3,178.1,146.5,180.4,145.6z"/>
		<path class="st3" d="M247.5,152.4c-3.2-1.1-5.1-2.6-6.4-4.9c-1.2-2.3-1.6-20.9-0.5-23.8c2.4-6.1,28.6-7.7,35.1-2.1
			c2,1.8,2.6,3.2,2.7,6.6l0.1,4.4l-9,2.7c-4.9,1.5-11.6,3.5-14.7,4.4c-4.5,1.3-5.8,2.1-5.8,3.6c0,2.5,2,2.9,17,3.2l12.5,0.2v3v3
			l-14.5,0.2C256,153,248.6,152.7,247.5,152.4z M269.9,128.6c0.2-0.2-0.2-1-0.9-1.9c-1.6-1.9-16.9-2.2-18.8-0.3
			c-0.7,0.7-1.2,2.9-1.2,4.9v3.7l10.3-3C264.9,130.3,269.7,128.8,269.9,128.6z"/>
		<path class="st1" d="M327.5,120.8l-4.7-5.6l3.3-3.7c1.8-2.1,8-9.1,13.8-15.5l10.4-11.8h9.4c5.1,0,9.3,0.2,9.3,0.6
			s-28.1,32.3-35.5,40.2C332.5,126.1,331.4,125.3,327.5,120.8z"/>
		<path class="st2" d="M168,108.3c0-0.4,2.4-3.1,5.3-5.9c6.4-6,15.8-10.9,24.1-12.6l6-1.3l3.2-9.1c13.2-38,54.8-57.6,91.5-43.2
			c3.5,1.4,7.4,2,12.9,2h8v5.3c0,4.8,0.4,5.7,3.6,8.8c1.9,1.8,5.8,6.7,8.5,10.7l4.9,7.4l-3,3.7c-3.2,4.1-5.9,6.6-6.4,6
			c-0.2-0.2-1.8-3.3-3.7-6.8c-6.6-12.6-21-23.8-35.5-27.6c-7.4-1.9-22.2-1.9-29.4,0c-21.1,5.6-37.2,23.1-41.8,45.5l-1.7,8.5l-9,1.2
			c-6.7,1-10.8,2.2-15.8,4.8c-6,3.1-7.7,3.5-14.2,3.5C171.4,109.2,168,108.8,168,108.3z"/>
		<rect x="303.8" class="st2" width="4.6" height="5"/>
		<rect x="297.7" y="14.2" class="st2" width="12.8" height="12.8"/>
		<rect x="319" y="15.4" class="st2" width="7.3" height="7.3"/>
		<rect x="350.3" y="29.4" class="st1" width="10.9" height="10.9"/>
		<rect x="332" y="46" class="st2" width="12.8" height="12.8"/>
		<rect x="364" y="60.7" class="st1" width="6.6" height="6.6"/>
		<rect x="302.5" y="38.3" class="st2" width="16.5" height="12"/>
		<rect x="303.8" class="st2" width="4.6" height="5"/>
		<rect x="297.7" y="14.2" class="st2" width="12.8" height="12.8"/>
		<rect x="319" y="15.4" class="st2" width="7.3" height="7.3"/>
		<rect x="350.3" y="29.4" class="st1" width="10.9" height="10.9"/>
		<rect x="332" y="46" class="st2" width="12.8" height="12.8"/>
		<rect x="364" y="60.7" class="st1" width="6.6" height="6.6"/>
		<rect x="302.5" y="38.3" class="st2" width="16.5" height="12"/>
	</g>
</g>
</svg>
